<?xml version="1.0" encoding="utf-8"?>
<!-- Svg Vector Icons : http://www.onlinewebfonts.com/icon -->
<!DOCTYPE svg PUBLIC "-//W3C//DTD SVG 1.1//EN" "http://www.w3.org/Graphics/SVG/1.1/DTD/svg11.dtd">
<svg version="1.1" xmlns="http://www.w3.org/2000/svg" xmlns:xlink="http://www.w3.org/1999/xlink" x="0px" y="0px" viewBox="0 0 256 256" enable-background="new 0 0 256 256" xml:space="preserve">
<metadata> Svg Vector Icons : http://www.onlinewebfonts.com/icon </metadata>
<g> <path fill="#000000" d="M128,246c-65.1,0-118-52.7-118-118C10,62.7,62.9,10,128,10c65.1,0,118,52.7,118,118 C246,193.3,193.1,246,128,246z M128,33.7c-52.1,0-94.3,42.2-94.3,94.3s42.2,94.3,94.3,94.3s94.3-42.2,94.3-94.3 S180.1,33.7,128,33.7z M163.4,139.7H128c-6.6,0-11.7-5.4-11.7-11.7V57.2c0-6.6,5.4-11.7,11.7-11.7c6.6,0,11.7,5.4,11.7,11.7v58.9 h23.7c6.6,0,11.7,5.4,11.7,11.7C175.2,134.6,170,139.7,163.4,139.7z"/></g>
</svg>